<svg width="1440" height="958" viewBox="0 0 1440 958" fill="none" xmlns="http://www.w3.org/2000/svg">
<g clip-path="url(#clip0_375_1945)">
<path d="M-0.161101 452.958L70.473 436.607H130.796L222.222 411.173L389.995 467.491L457.858 472.941C457.858 472.941 595.469 403.307 608.665 399.964C621.86 396.64 689.723 392.098 689.723 392.098L807.541 411.173L1126.74 559.689V632.393H-12.4707L-0.161101 452.958Z" fill="#E4EEE6" stroke="black" stroke-miterlimit="10"/>
<path d="M536.089 532.747L659.581 448.125L748.161 411.174L835.516 317.323L853.009 300.355H881.681L920.646 323.373L947.037 322.155L962.118 341.54L1058.88 416.551L1126.74 620.076H536.089V532.747Z" fill="#E4EEE6" stroke="black" stroke-miterlimit="10"/>
<path opacity="0.15" d="M659.581 448.125L762.299 501.1L916.876 620.076H947.037L831.425 488.093L814.139 452.958L779.265 443.874L748.161 411.174L659.581 448.125Z" fill="#E4EEE6" stroke="black" stroke-miterlimit="10"/>
<path opacity="0.15" d="M881.681 300.355L918.761 363.031L973.673 382.724L1061.08 453.866L1091.92 515.634L1058.88 416.551L962.118 341.54L947.037 322.155L920.646 323.373L881.681 300.355Z" fill="#E4EEE6" stroke="black" stroke-miterlimit="10"/>
<path d="M1437.16 399.983L1378.1 382.724L1349.18 391.353L1275.04 412.99L1135.55 508.676L935.727 537.743L809.539 526.843L751.422 513.526L718.942 519.576L600.05 488.093L558.71 467.491L502.157 468.708L475.766 488.093L439.327 489.292L309.879 523.209L150.269 546.227L-35.7138 581.598V736.672H1437.16V399.983Z" fill="#E4EEE6" stroke="url(#paint0_linear_375_1945)" stroke-miterlimit="10"/>
<path opacity="0.32" d="M558.71 467.491L508.435 477.192L486.455 503.226L431.146 500.192L309.879 523.209L439.327 489.292L475.766 488.093L502.157 468.708L558.71 467.491Z" fill="#E4EEE6" stroke="url(#paint1_linear_375_1945)" stroke-miterlimit="10"/>
<path opacity="0.15" d="M671.193 570.444L602.689 611.011L468.226 625.544L367.204 736.672H1001.82L939.798 537.144L935.727 537.743L809.539 526.843L751.422 513.527L718.942 519.576L600.05 488.093L671.193 546.227V570.444Z" fill="#E4EEE6" stroke="url(#paint2_linear_375_1945)" stroke-miterlimit="10"/>
<path d="M-52.0574 632.811C-52.0574 632.811 29.0012 507.459 62.9327 502.009C96.8642 496.558 136.451 502.009 136.451 502.009C136.451 502.009 276.324 620.094 317.608 632.811C358.891 645.528 534.204 647.344 534.204 647.344L662.258 621.911L758.529 591.027L784.581 556.51L816.231 546.209H831.972C831.972 546.209 862.208 496.558 869.749 472.941C877.289 449.324 894.255 432.974 894.255 432.974C894.255 432.974 896.14 403.907 907.45 401.182C918.761 398.457 938.554 401.182 938.554 401.182L958.348 403.907L1013.02 340.322C1013.02 340.322 1034.69 309.438 1045.06 304.897C1055.43 300.355 1072.4 273.104 1072.4 273.104H1116.69L1190.21 300.355C1190.21 300.355 1219.43 357.581 1241.11 368.481C1262.79 379.381 1286.35 401.182 1286.35 401.182C1286.35 401.182 1318.4 467.491 1333.48 479.3C1348.56 491.108 1374.95 511.092 1374.95 511.092L1457.9 596.477V948.917H-52.0574V632.811Z" fill="#E4EEE6" stroke="url(#paint3_linear_375_1945)" stroke-miterlimit="10"/>
<path opacity="0.33" d="M1000.76 557.418L1046.14 624.2L1063.91 665.512L1152.51 643.711C1152.51 643.711 1089.36 551.968 1066.74 533.347C1044.12 514.726 1006.42 497.467 1006.42 497.467L958.348 403.907L938.554 401.182C938.554 401.182 918.761 398.457 907.45 401.182C907.45 401.182 945.152 453.866 951.75 485.658C958.348 517.451 1000.76 557.418 1000.76 557.418Z" fill="#E4EEE6" stroke="url(#paint4_linear_375_1945)" stroke-miterlimit="10"/>
<path opacity="0.33" d="M1249.59 427.524L1289.18 538.343L1297.66 508.367L1368.35 573.768L1457.9 620.076V596.477L1374.95 511.092C1374.95 511.092 1348.56 491.108 1333.48 479.3C1318.4 467.491 1286.35 401.182 1286.35 401.182C1286.35 401.182 1262.79 379.381 1241.11 368.481C1219.43 357.581 1190.21 300.355 1190.21 300.355L1222.26 383.923L1249.59 427.524Z" fill="#E4EEE6" stroke="url(#paint5_linear_375_1945)" stroke-miterlimit="10"/>
<path opacity="0.32" d="M-52.0574 699.756L-0.161064 642.803L43.1393 581.598L87.5708 499.756C79.446 500.028 71.0386 500.719 62.9327 502.009C29.0012 507.459 -52.0574 632.811 -52.0574 632.811V699.756Z" fill="#E4EEE6" stroke="url(#paint6_linear_375_1945)" stroke-miterlimit="10"/>
<path d="M1170.74 862.351C1170.74 862.351 988.207 802.381 962.589 793.589C936.99 784.814 853.424 732.729 835.516 725.462C817.607 718.196 768.143 718.196 768.143 718.196L746.747 701.246L705.765 691.563L689.629 685.513L648.515 647.962C648.515 647.962 608.514 645.546 584.875 640.695C561.217 635.845 519.745 628.578 519.745 628.578L434.294 591.027L331.237 553.476L258.341 546.209L229.442 572.86C229.442 572.86 209.328 632.211 191.74 641.894C174.153 651.577 131.418 672.778 131.418 672.778L84.9128 704.28H45.9669L-20.6331 765.248V927.116H1170.74V862.351Z" stroke="url(#paint7_linear_375_1945)" stroke-miterlimit="10"/>
<path opacity="0.1" d="M151.532 672.778L219.395 644.31L273.44 581.58L331.256 553.476L258.359 546.209L229.461 572.86C229.461 572.86 209.347 632.211 191.759 641.894C174.171 651.577 131.437 672.778 131.437 672.778L84.9316 704.28L106.29 704.879L151.532 672.778Z" stroke="url(#paint8_linear_375_1945)" stroke-miterlimit="10"/>
<path d="M-0.161072 891.999C-0.161072 891.999 311.123 804.198 313.008 802.981C314.893 801.764 331.859 803.581 337.514 802.981C343.169 802.382 389.033 781.181 391.559 779.963C394.067 778.746 408.525 780.563 419.836 789.047C431.146 797.531 435.538 785.414 437.424 787.23C439.309 789.047 456.896 807.813 458.159 805.397C459.422 802.981 468.207 806.614 471.977 805.397C475.747 804.18 502.761 788.447 516.597 781.78C530.415 775.113 541.725 777.547 566.872 774.513C592 771.479 629.08 759.38 635.357 757.564C641.635 755.747 664.256 766.048 683.352 769.063C702.448 772.097 709.498 763.613 718.923 764.213C739.659 765.539 766.05 756.946 773.308 754.53C780.565 752.113 853.009 733.946 853.009 733.946L1057.62 617.678L1100.35 581.598C1100.35 581.598 1140.56 591.027 1159.41 583.76C1178.26 576.493 1205.92 589.81 1205.92 589.81C1205.92 589.81 1261.21 603.126 1285.09 610.393C1308.97 617.66 1347.92 649.143 1347.92 649.143L1398.19 672.76H1466.06V948.898H-0.161072V891.999Z" stroke="url(#paint9_linear_375_1945)" stroke-miterlimit="10"/>
<path opacity="0.32" d="M1114.19 0C1114.19 0 1056.37 33.9178 1029.98 38.7502C1003.59 43.5826 1014.9 44.7998 992.279 47.2342C969.658 49.6504 968.395 42.3836 942.004 47.2342C915.613 52.0848 896.762 50.8676 890.484 62.985C884.207 75.1023 930.693 67.8355 928.186 78.7357C925.679 89.6359 891.747 86.0025 881.681 92.0521C871.634 98.1018 916.876 98.1018 849.013 105.369C781.15 112.635 794.967 90.835 752.251 117.486C709.516 144.137 710.779 139.286 668.045 145.336C625.31 151.386 588.871 153.82 613.999 169.553C639.127 185.303 748.462 182.869 756.003 191.353C763.543 199.837 693.173 203.47 646.668 202.253C600.163 201.036 572.527 186.957 514.712 202.489C456.915 218.004 451.882 228.904 394.085 228.904C336.27 228.904 322.452 226.488 224.428 236.171C126.403 245.854 137.111 234.954 72.3581 236.171C7.62427 237.388 -0.161133 234.954 -0.161133 234.954V6.04961L1114.19 0Z" fill="#EEE8C1"/>
<path opacity="0.32" d="M-29.4365 162.286C-29.4365 162.286 54.6948 155.019 87.5707 156.836C120.428 158.652 157.187 169.553 197.716 173.186C238.245 176.819 323.395 177.728 331.237 189.536C339.079 201.345 351.351 209.52 381.512 213.153C411.673 216.787 409.788 231.847 440.892 240.222C471.996 248.579 525.721 259.479 525.721 259.479C525.721 259.479 461.628 263.113 423.926 259.479C386.225 255.846 378.684 253.121 348.523 256.754C318.362 260.388 308.936 244.946 280.66 245.854C252.384 246.762 252.384 251.813 230.705 261.096C209.027 270.379 214.682 284.005 160.957 273.104C107.232 262.204 97.8067 270.379 58.2199 273.104C18.6332 275.83 -11.5282 276.738 -16.2409 273.104C-20.9536 269.471 -29.4365 162.286 -29.4365 162.286Z" fill="#EEE8C1"/>
<path opacity="0.32" d="M568.135 268.563C568.135 268.563 596.411 275.72 642.596 277.137C688.781 278.554 737.793 273.904 775.494 277.137C813.196 280.371 862.208 270.379 895.197 268.563C928.186 266.746 977.198 266.746 982.854 268.563C988.509 270.379 1022.44 267.2 1022.44 267.2C1022.44 267.2 991.337 257.662 961.175 256.754C931.014 255.846 906.508 257.662 887.657 250.396C868.806 243.129 842.095 249.487 831.425 250.396C820.737 251.304 789.633 261.296 758.529 257.662C727.425 254.029 688.781 254.937 688.781 254.937L568.135 268.563Z" fill="#EEE8C1"/>
<path opacity="0.32" d="M1043.18 234.954C1043.18 234.954 1076.17 220.039 1121.41 222.055C1166.65 224.054 1189.27 233.301 1210.95 221.874C1232.63 210.446 1241.11 206.813 1267.5 204.996C1293.89 203.18 1299.55 213.172 1328.77 214.08C1357.99 214.988 1425.85 208.63 1425.85 208.63V300.373C1425.85 300.373 1382.49 291.29 1351.39 289.473C1320.28 287.656 1310.86 286.748 1283.52 274.939C1256.19 263.131 1259.96 268.581 1219.43 264.039C1178.9 259.497 1193.04 266.546 1153.45 252.576C1113.87 238.587 1060.14 228.595 1043.18 234.954Z" fill="#EEE8C1"/>
<path opacity="0.32" d="M1157.22 132.31C1157.22 132.31 1207.18 118.685 1224.14 110.51C1241.11 102.335 1254.31 110.51 1274.1 115.051C1293.89 119.593 1310.86 125.189 1331.59 119.666C1352.33 114.143 1368.35 121.41 1381.55 124.135C1394.74 126.86 1437.16 125.952 1437.16 125.952V149.569C1437.16 149.569 1356.1 145.935 1335.36 143.21C1314.63 140.485 1312.74 151.385 1279.75 140.485C1246.77 129.585 1251.48 121.555 1221.32 128.295C1191.16 135.035 1157.22 132.31 1157.22 132.31Z" fill="#EEE8C1"/>
<path d="M927.96 243.655C927.96 243.655 920.457 240.404 916.819 243.655C916.819 243.655 923.813 242.656 927.96 247.652C932.107 242.656 939.101 243.655 939.101 243.655C935.482 240.422 927.96 243.655 927.96 243.655Z" fill="#53307D"/>
<path d="M650.815 347.135C650.815 347.135 641.371 343.047 636.809 347.135C636.809 347.135 645.593 345.881 650.815 352.149C656.018 345.863 664.821 347.135 664.821 347.135C660.259 343.047 650.815 347.135 650.815 347.135Z" fill="#53307D"/>
<path d="M1048.57 196.04C1048.57 196.04 1036.03 190.626 1029.98 196.04C1029.98 196.04 1041.65 194.369 1048.57 202.707C1055.49 194.369 1067.15 196.04 1067.15 196.04C1061.12 190.626 1048.57 196.04 1048.57 196.04Z" fill="#53307D"/>
<path d="M963.984 233.355C963.984 233.355 959.573 231.447 957.443 233.355C957.443 233.355 961.552 232.774 963.984 235.698C966.416 232.774 970.525 233.355 970.525 233.355C968.395 231.447 963.984 233.355 963.984 233.355Z" fill="#53307D"/>
<path d="M1261.36 335.417C1261.36 335.417 1257.23 333.637 1255.25 335.417C1255.25 335.417 1259.09 334.872 1261.36 337.615C1263.64 334.872 1267.46 335.417 1267.46 335.417C1265.47 333.637 1261.36 335.417 1261.36 335.417Z" fill="#53307D"/>
<path d="M684.52 358.489C684.52 358.489 680.392 356.709 678.413 358.489C678.413 358.489 682.258 357.944 684.52 360.687C686.801 357.944 690.628 358.489 690.628 358.489C688.63 356.709 684.52 358.489 684.52 358.489Z" fill="#53307D"/>
<path d="M581.595 381.961C581.595 381.961 577.184 380.053 575.054 381.961C575.054 381.961 579.163 381.379 581.595 384.304C584.027 381.379 588.136 381.961 588.136 381.961C586.006 380.053 581.595 381.961 581.595 381.961Z" fill="#53307D"/>
<path d="M635.376 958C635.376 958 621.483 919.849 613.038 908.35C604.593 896.85 587.627 887.73 587.627 887.73C587.627 887.73 565.628 890.11 558.729 887.73C551.81 885.35 551.81 870.689 547.418 868.019C543.026 865.348 539.256 836.281 529.189 834.464C527.926 844.147 537.352 856.374 525.419 862.987C513.487 869.599 507.831 877.611 507.831 882.68C507.831 887.748 502.176 896.232 502.176 896.232C502.176 896.232 499.198 887.839 492.788 886.077C486.379 884.315 483.646 887.439 483.646 887.439L481.817 882.226C481.817 882.226 472.976 886.368 469.621 882.553C466.265 878.737 463.211 875.649 463.211 875.649C463.211 875.649 456.199 880.518 454.069 875.813C451.939 871.089 450.412 860.807 447.66 859.044C444.907 857.282 447.66 834.483 447.66 834.483C447.66 834.483 440.025 847.581 439.422 856.392C438.818 865.203 434.238 869.345 430.279 875.813C426.32 882.262 428.752 888.766 426 896.25C423.248 903.735 415.934 907.26 414.708 901.973C413.483 896.686 416.838 893.162 409.826 894.325C402.813 895.506 398.534 897.849 398.534 897.849C398.534 897.849 401.286 891.763 395.48 887.458C389.693 883.152 390.598 890.146 385.414 882.244C380.23 874.341 371.389 883.37 366.205 878.265C361.021 873.16 358.269 864.495 358.269 864.495C358.269 864.495 358.269 855.229 356.139 850.524C354.009 845.819 348.203 847 348.203 847C348.203 847 347.599 837.008 341.492 829.941C335.384 822.892 338.136 819.658 336.308 815.535C334.479 811.411 329.295 808.54 328.371 810.866C327.448 813.191 327.146 824.364 321.66 829.941C316.175 835.518 310.991 825.526 306.41 832.884C301.829 840.242 297.871 845.238 297.871 845.238C297.871 845.238 285.674 840.532 283.525 837.299C281.395 834.065 281.697 829.36 278.944 827.888C276.192 826.417 274.364 802.6 271.008 801.437C267.653 800.256 271.008 808.849 269.18 810.866C267.351 812.9 254.533 809.667 254.834 822.892C255.136 836.118 246.295 815.535 246.295 815.535L241.111 804.653C241.111 804.653 237.454 778.783 235.003 782.598C232.571 786.413 231.648 802.291 231.648 802.291C231.648 802.291 225.238 805.815 224.013 814.335C222.788 822.856 221.883 829.033 220.959 830.213C220.036 831.394 216.379 824.636 214.248 823.746C212.118 822.856 211.496 787.594 209.668 787.594C207.839 787.594 204.182 798.476 204.182 800.819C204.182 803.163 203.258 816.406 199.3 816.697C195.341 816.988 190.76 815.516 188.63 817.587C186.5 819.64 180.996 794.951 177.037 801.709C173.078 808.468 172.154 811.411 172.154 811.411L166.047 801.709C166.047 801.709 162.088 765.848 157.809 767.901C153.53 769.954 154.152 781.726 154.152 782.888C154.152 784.069 156.282 787.594 151.72 792.88C147.139 798.167 146.235 804.053 145.933 806.106C145.631 808.159 142.578 812.283 142.578 812.283L135.565 797.295C135.565 797.295 130.381 776.13 129.778 774.949C129.175 773.769 124.895 774.059 126.121 784.941C127.346 795.823 126.422 800.819 123.689 802.581C120.937 804.344 111.191 793.77 111.191 793.77L104.782 782.598C104.782 782.598 100.201 782.888 100.823 793.48C101.426 804.071 99.296 810.23 98.6927 811.992C98.0895 813.754 90.1533 790.246 90.1533 789.356C90.1533 788.466 82.5187 779.073 81.9155 777.602C81.3123 776.13 86.4963 748.208 80.3886 751.732C74.2809 755.256 74.2809 767.01 74.903 769.663C75.5062 772.315 77.6552 787.012 72.7728 789.356C67.8905 791.699 65.4587 796.713 65.1382 799.057C64.8366 801.401 59.0306 783.47 59.0306 783.47C59.0306 783.47 49.2658 783.47 46.8341 779.346C44.4023 775.222 41.3485 761.706 41.3485 761.706C41.3485 761.706 39.2183 747.009 36.1645 755.238C33.1107 763.468 36.4661 770.226 34.0344 774.059C31.6026 777.874 25.4949 777.584 25.4949 777.584L17.8603 767.592L-0.142212 749.952V957.982H635.376V958Z" fill="url(#paint10_linear_375_1945)"/>
<path d="M1445.17 829.469C1445.17 829.469 1421.14 814.935 1418.78 807.214C1416.42 799.493 1420.19 792.226 1418.78 784.051C1417.37 775.876 1417.99 764.976 1417.99 764.976L1413.12 741.359C1413.12 741.359 1412.65 749.534 1408.88 759.072C1405.11 768.609 1400.87 779.509 1402.76 785.414C1404.64 791.318 1400.4 799.947 1400.4 799.947C1400.4 799.947 1402.29 818.114 1398.04 814.481C1393.8 810.847 1390.97 801.31 1390.97 801.31C1390.97 801.31 1394.27 815.389 1388.15 812.21C1382.02 809.031 1378.72 799.493 1378.72 799.493C1378.72 799.493 1373.54 808.577 1371.18 806.76C1368.82 804.943 1359.87 806.76 1357.04 800.856C1354.22 794.951 1349.5 778.601 1343.85 774.059C1338.19 769.518 1336.31 757.709 1333.01 757.709C1329.71 757.709 1328.77 777.693 1326.41 781.78C1324.05 785.868 1320.76 795.86 1320.76 795.86C1320.76 795.86 1316.98 783.597 1314.63 776.784C1312.27 769.972 1310.86 767.247 1308.97 759.072C1307.09 750.896 1303.79 747.263 1303.79 747.263C1303.79 747.263 1300.96 754.53 1300.49 759.98C1300.02 765.43 1300.49 780.872 1300.49 780.872L1300.28 790.864C1300.28 790.864 1285.41 779.964 1284.94 768.155C1284.47 756.346 1279.28 754.53 1279.28 754.53C1279.28 754.53 1274.1 747.263 1271.27 744.084C1268.44 740.905 1269.86 714.562 1267.03 710.929C1264.2 707.296 1260.43 690.037 1260.43 690.037C1260.43 690.037 1256.66 709.112 1255.72 720.013C1254.78 730.913 1251.95 745.446 1251.95 745.446L1244.88 768.609L1237.34 776.33C1237.34 776.33 1236.87 770.426 1233.1 754.076C1229.33 737.725 1227.91 732.729 1227.91 731.367C1227.91 730.004 1223.67 695.033 1220.37 690.037C1220.37 690.037 1218.96 691.854 1216.6 697.758C1214.25 703.662 1210.48 711.837 1210.48 714.108C1210.48 716.379 1208.12 732.729 1208.12 732.729L1204.35 747.263C1204.35 747.263 1198.7 739.088 1197.75 732.729C1196.81 726.371 1193.51 714.562 1193.04 713.2C1192.57 711.837 1189.27 672.778 1189.27 672.778C1189.27 672.778 1179.37 688.674 1176.55 706.841C1173.72 725.008 1172.78 718.196 1171.36 731.821C1169.95 745.446 1169.01 764.976 1169.01 764.976C1169.01 764.976 1161.47 745.9 1160.05 743.63C1158.64 741.359 1160.05 719.558 1160.05 719.558C1160.05 719.558 1161.62 689.583 1159.43 685.495C1157.22 681.408 1155.34 692.762 1155.34 692.762C1155.34 692.762 1153.93 711.837 1146.86 720.467C1139.79 729.096 1141.2 746.355 1141.2 746.355L1136.02 765.43V777.239C1136.02 777.239 1133.19 757.255 1129.42 749.08C1125.65 740.905 1125.65 720.467 1125.65 720.467C1125.65 720.467 1121.41 725.008 1120.46 733.184C1119.52 741.359 1120.46 754.984 1120.46 754.984C1120.46 754.984 1112.92 765.43 1112.92 769.063C1112.92 769.063 1111.51 752.713 1109.15 751.114C1106.8 749.516 1107.27 757.709 1104.91 757.709C1102.56 757.709 1093.6 731.367 1093.6 731.367L1091.25 722.283C1091.25 722.283 1092.19 723.192 1091.25 735.454C1090.3 747.717 1091.25 758.617 1091.25 758.617L1083.71 753.621C1083.71 753.621 1082.29 734.092 1079.94 732.729C1077.58 731.367 1077.58 744.992 1076.64 747.263C1075.69 749.534 1070.04 751.351 1069.57 766.338C1069.1 781.326 1066.27 788.139 1066.27 788.139C1066.27 788.139 1057.79 780.872 1056.37 792.68C1054.96 804.489 1043.18 799.039 1043.18 799.039C1043.18 799.039 1037.99 810.393 1033.75 805.852C1029.51 801.31 1019.61 816.298 1016.31 810.847C1013.02 805.397 1017.26 800.856 1016.31 793.589C1015.37 786.322 1013.49 782.234 1012.54 777.239C1011.6 772.243 1012.54 754.53 1012.54 754.53C1012.54 754.53 1005.95 751.351 1005.95 761.797C1005.95 772.243 1006.42 779.509 1002.18 787.685C997.934 795.86 995.107 801.31 995.107 801.31C995.107 801.31 994.636 793.589 995.107 784.96C995.578 776.33 997.52 766.338 994.9 766.338C992.279 766.338 992.279 768.155 990.865 776.784C989.452 785.414 983.796 802.672 983.796 802.672C983.796 802.672 981.911 794.043 980.969 786.322C980.026 778.601 980.969 774.059 980.969 774.059C980.969 774.059 973.9 774.513 973.9 779.964C973.9 785.414 969.658 800.401 969.658 800.401L966.831 810.393C966.831 810.393 961.175 800.401 962.589 793.589C964.003 786.776 962.363 767.701 962.363 767.701C962.363 767.701 956.463 771.334 956.463 778.601C956.463 785.868 957.876 794.043 956.463 796.768C955.049 799.493 950.807 803.581 950.807 806.306C950.807 809.031 950.807 816.298 950.807 816.298C950.807 816.298 936.198 823.11 936.198 824.473C936.198 825.835 932.899 833.102 932.899 833.102C932.899 833.102 920.175 831.74 917.818 826.744C915.462 821.748 908.864 805.397 908.864 805.397C908.864 805.397 908.393 810.393 906.508 815.389C904.623 820.385 905.565 825.381 903.209 833.102C900.853 840.823 899.439 842.186 897.554 839.915C895.669 837.644 890.013 832.194 891.898 824.473C893.784 816.752 891.427 821.293 889.542 808.577C887.657 795.86 886.715 787.23 886.715 787.23C886.715 787.23 880.588 794.043 878.703 805.397C876.818 816.752 882.944 819.931 878.703 826.744C874.461 833.556 870.691 836.899 870.691 840.914C870.691 844.929 868.806 849.906 867.864 847.636C866.921 845.365 865.979 833.556 861.737 829.469C857.496 825.381 859.852 837.644 858.438 839.006C857.024 840.369 850.898 845.819 850.898 845.819C850.898 845.819 852.783 837.19 850.898 831.285C849.013 825.381 851.369 813.118 850.898 810.847C850.427 808.577 846.393 800.401 846.393 800.401C846.393 800.401 841.378 810.847 839.776 815.843C838.174 820.839 832.914 815.843 833.178 824.473C833.461 833.102 830.633 846.273 828.748 845.819C826.863 845.365 824.827 834.919 824.903 832.648C824.978 830.377 828.126 827.652 824.903 817.206C821.679 806.76 817.758 800.401 817.834 798.585C817.909 796.768 817.758 804.035 817.834 805.397C817.909 806.76 816.948 823.564 816.25 824.927C815.553 826.289 814.139 825.835 811.782 840.823C809.426 855.811 806.127 856.81 805.185 856.774C804.242 856.719 802.847 832.194 802.847 832.194L797.173 819.931C797.173 819.931 794.138 844.456 789.293 844.456C784.449 844.456 778.699 834.919 778.511 833.102C778.322 831.285 767.012 819.931 766.069 811.302C765.127 802.672 763.713 798.585 763.713 798.585C763.713 798.585 754.438 814.027 755.305 823.11C756.172 832.194 751.422 848.09 751.422 848.09C751.422 848.09 739.659 839.46 735.908 827.198C732.156 814.935 726.087 799.493 726.087 799.493C726.087 799.493 717.019 826.289 719.413 830.831C721.788 835.373 703.918 843.548 705.784 848.998C707.65 854.448 689.648 856.774 689.648 856.774L679.374 844.911L671.363 823.11C671.363 823.11 664.972 842.186 662.276 848.09C659.581 853.994 654.057 864.84 654.057 864.84L640.73 846.727L632.605 831.74C632.605 831.74 626.516 850.361 627.497 854.448C628.477 858.536 622.822 862.95 622.822 864.386C622.822 865.821 616.224 862.351 616.224 862.351V844.002L610.097 827.198C610.097 827.198 605.856 842.64 606.553 844.002C607.27 845.365 603.971 856.774 603.971 856.774L591.133 862.351L582.292 873.542C582.292 873.542 580.878 863.078 578.993 854.448C577.108 845.819 578.993 835.373 578.993 835.373C578.993 835.373 570.511 843.766 572.867 859.789C575.223 875.813 573.809 884.206 570.511 887.73C567.212 891.255 561.556 886.259 559.671 897.159C557.786 908.059 548.832 914.872 546.947 916.234C545.062 917.597 522.912 929.405 522.912 930.768C522.912 932.13 502.176 948.935 502.176 948.935H1439.69L1445.17 829.469Z" fill="url(#paint11_linear_375_1945)"/>
</g>
<defs>
<linearGradient id="paint0_linear_375_1945" x1="-36.6626" y1="559.674" x2="1438.1" y2="559.674" gradientUnits="userSpaceOnUse">
<stop offset="0.0477" stop-color="#082E21"/>
<stop offset="0.0667" stop-color="#082D22"/>
<stop offset="0.635" stop-color="#151738"/>
<stop offset="1" stop-color="#190F40"/>
</linearGradient>
<linearGradient id="paint1_linear_375_1945" x1="309.631" y1="495.345" x2="558.895" y2="495.345" gradientUnits="userSpaceOnUse">
<stop offset="0.0477" stop-color="#082E21"/>
<stop offset="0.0667" stop-color="#082D22"/>
<stop offset="0.635" stop-color="#151738"/>
<stop offset="1" stop-color="#190F40"/>
</linearGradient>
<linearGradient id="paint2_linear_375_1945" x1="365.134" y1="611.851" x2="1003.08" y2="611.851" gradientUnits="userSpaceOnUse">
<stop offset="0.0477" stop-color="#082E21"/>
<stop offset="0.0667" stop-color="#082D22"/>
<stop offset="0.635" stop-color="#151738"/>
<stop offset="1" stop-color="#190F40"/>
</linearGradient>
<linearGradient id="paint3_linear_375_1945" x1="-53" y1="611.017" x2="1458.84" y2="611.017" gradientUnits="userSpaceOnUse">
<stop offset="0.0477" stop-color="#082E21"/>
<stop offset="0.0667" stop-color="#082D22"/>
<stop offset="0.635" stop-color="#151738"/>
<stop offset="1" stop-color="#190F40"/>
</linearGradient>
<linearGradient id="paint4_linear_375_1945" x1="905.902" y1="532.83" x2="1154.03" y2="532.83" gradientUnits="userSpaceOnUse">
<stop offset="0.0477" stop-color="#082E21"/>
<stop offset="0.0667" stop-color="#082D22"/>
<stop offset="0.635" stop-color="#151738"/>
<stop offset="1" stop-color="#190F40"/>
</linearGradient>
<linearGradient id="paint5_linear_375_1945" x1="1189.33" y1="460.778" x2="1458.84" y2="460.778" gradientUnits="userSpaceOnUse">
<stop offset="0.0477" stop-color="#082E21"/>
<stop offset="0.0667" stop-color="#082D22"/>
<stop offset="0.635" stop-color="#151738"/>
<stop offset="1" stop-color="#190F40"/>
</linearGradient>
<linearGradient id="paint6_linear_375_1945" x1="-53" y1="600.484" x2="89.1508" y2="600.484" gradientUnits="userSpaceOnUse">
<stop offset="0.0477" stop-color="#082E21"/>
<stop offset="0.0667" stop-color="#082D22"/>
<stop offset="0.635" stop-color="#151738"/>
<stop offset="1" stop-color="#190F40"/>
</linearGradient>
<linearGradient id="paint7_linear_375_1945" x1="-21.5819" y1="736.652" x2="1171.68" y2="736.652" gradientUnits="userSpaceOnUse">
<stop offset="0.0477" stop-color="#082E21"/>
<stop offset="0.0667" stop-color="#082D22"/>
<stop offset="0.635" stop-color="#151738"/>
<stop offset="1" stop-color="#190F40"/>
</linearGradient>
<linearGradient id="paint8_linear_375_1945" x1="82.0625" y1="625.535" x2="334.538" y2="625.535" gradientUnits="userSpaceOnUse">
<stop offset="0.0477" stop-color="#082E21"/>
<stop offset="0.0667" stop-color="#082D22"/>
<stop offset="0.635" stop-color="#151738"/>
<stop offset="1" stop-color="#190F40"/>
</linearGradient>
<linearGradient id="paint9_linear_375_1945" x1="-1.09909" y1="765.217" x2="1467.01" y2="765.217" gradientUnits="userSpaceOnUse">
<stop offset="0.0477" stop-color="#082E21"/>
<stop offset="0.0667" stop-color="#082D22"/>
<stop offset="0.635" stop-color="#151738"/>
<stop offset="1" stop-color="#190F40"/>
</linearGradient>
<linearGradient id="paint10_linear_375_1945" x1="317.607" y1="958.006" x2="317.607" y2="749.973" gradientUnits="userSpaceOnUse">
<stop stop-color="white"/>
<stop offset="0.0296" stop-color="#DBDFDD"/>
<stop offset="0.0694" stop-color="#B2BBB7"/>
<stop offset="0.1141" stop-color="#8C9994"/>
<stop offset="0.1626" stop-color="#6B7C75"/>
<stop offset="0.2161" stop-color="#50645C"/>
<stop offset="0.2766" stop-color="#3A5047"/>
<stop offset="0.3469" stop-color="#294137"/>
<stop offset="0.4336" stop-color="#1D372C"/>
<stop offset="0.5546" stop-color="#163126"/>
<stop offset="0.8832" stop-color="#142F24"/>
</linearGradient>
<linearGradient id="paint11_linear_375_1945" x1="973.664" y1="964.218" x2="973.664" y2="755.724" gradientUnits="userSpaceOnUse">
<stop stop-color="white"/>
<stop offset="0.0296" stop-color="#DBDFDD"/>
<stop offset="0.0694" stop-color="#B2BBB7"/>
<stop offset="0.1141" stop-color="#8C9994"/>
<stop offset="0.1626" stop-color="#6B7C75"/>
<stop offset="0.2161" stop-color="#50645C"/>
<stop offset="0.2766" stop-color="#3A5047"/>
<stop offset="0.3469" stop-color="#294137"/>
<stop offset="0.4336" stop-color="#1D372C"/>
<stop offset="0.5546" stop-color="#163126"/>
<stop offset="0.8832" stop-color="#142F24"/>
</linearGradient>
<clipPath id="clip0_375_1945">
<rect width="1520" height="958" fill="white" transform="translate(-53)"/>
</clipPath>
</defs>
</svg>
